<svg xmlns="http://www.w3.org/2000/svg" viewBox="0 0 200 60">
  <style type="text/css">.cls-0 {fill:#F0BABD;}
.cls-1 {fill:#B79E65;}</style>
  <path class="cls-0" d="m94.1 0.7 1 13.3-1.2 0.1c-2-9.1-4-11.7-11.7-11.7h-12.2v20.1c2.3 1.5 5.7 1.3 8.5 1.1 4.4-0.3 5.4-1.4 6.5-9.8h1.2l-0.3 21.2h-0.9c-0.9-6.4-1.2-9.1-5.9-10.2-2.1-0.3-6-0.4-9.1 0.6v19.6c0 3.1 0.5 3.6 4.1 3.8l2.2 0.1v1.2c-2.9 0-6.6-0.1-10.2-0.1h-9.8v-1.1l2.3-0.2c2.8-0.2 3.7-0.5 3.7-3.2v-40.3c0-2.6-0.6-3.2-3.8-3.3l-2.3-0.1v-1.1h37.9z"/>
  <path class="cls-0" d="m135.1 0.7 1 13.3-1 0.1c-2-9.2-4.7-11.7-12.8-11.7h-11.9v21.1l7.7-0.1c5.6-0.1 6.8-1.8 7.6-9.5h1l-0.1 21h-1.1c-0.9-7.4-1.8-9.8-7.4-9.9l-7.7-0.1v23.3h14.4c7.8 0 10.5-1.4 11.7-11l1.1-0.1-0.4 13-40-0.1v-1.1l2.3-0.2c2.8-0.1 3.4-0.8 3.4-3.1v-40.4c0-2.7-0.3-3.3-3.4-3.3l-2.3-0.1v-1.1h37.9z"/>
  <path class="cls-1" d="m27 29.8c-0.9-1.5-4.4-3.2-9.1-3.4 2.7-0.7 8-2.3 8-5.7-0.4-2.3-4.1-3.2-8.8-0.4-3.4 2.1-7.2 6.3-9.4 9.6l3.4-7.7c1.1-2.7 1.9-2.2 1.9-3.1-0.2-0.6-1.4-0.9-2.1 0.1l-4.9 13c-1.9 0.8-4.6 2.1-4.1 3.8 1.7 3.9 14.1 3.9 20.6 0.9 3.2-1.4 5.1-3.6 4.6-6.6 2.4 0 5.7 0 9.3 0.5l0.4-0.3c-3.4-0.5-7.3-0.6-9.8-0.7zm-5.2-10.5c4.9-0.8 4.9 3.6-3.2 6.3l-4.9 1c-1.1 0.6 0.1 1.2 0.5 1 0.6-0.3 1.8-0.5 2.6-0.6 3.5 0 6.9 1 8.7 2.7-4.9 0.2-11.5 0.5-18.1 2 2.5-3.3 9.2-11.2 14.4-12.4zm-18.9 17.1c-0.4-1.1 1.1-2.2 2.5-2.8l-1.2 2.4c0 0.4 0.9 0.3 1-0.2l1.6-3.1c3.8-1.3 10.5-2.4 18.8-2.5 1.8 4-6.1 8.5-15.7 8.4-3 0-6.4-0.5-7-2.2z"/>
  <path class="cls-1" d="m103.9 30.8-7.1 3.1c1.3-2.6 1.4-3.2 0.4-3.2-2.5 1.9-5.2 4.1-7.5 4.1-1.6 0 0-2.2 1.7-3.7 0.4-0.7-0.8-1.1-1.5-0.2l-0.5 0.5c-1.9 0.9-7.8 4.5-11.3 4.6-3.7 0 0-4.8 3.8-10.1l1.5-2.1c2.5-0.1 5.8-0.2 8.2-0.1 0.6 0 0.8 0.6 1.3 0.6 1.5-0.6 0.3-1-1.3-1-2.2-0.1-5-0.1-7.9 0 1.4-2.4 1.3-4.1 0.4-3.8-0.4 1.2-0.7 2.3-1.5 3.5-2.9 0.7-5.7 1.1-8.6 0.9l-0.9 0.3c2.8 0.3 5.5 0.2 8.8 0-1.2 2.1-3.4 4.9-5.3 7.5-2 0.9-4.5 2.2-6.2 2.2-1.9 0-0.5-2.3 0.5-3.6 0-0.4-1.3-0.6-1.5-0.2-1.9 2.1-5.9 5.2-6 3.4 0-0.9 1.1-2.2 1.6-3.2 0-0.6-1.1-0.6-1.4-0.3l-0.4 0.8c-1.6 0.8-5.6 3.4-9.1 3.4-1.6 0-1.6-1.6-0.2-3.4 0.5-0.7-0.5-1.1-1-0.7l-0.8 0.9c-0.5-1.3-3-1.5-4.7 0.3-2.4 1.1-6.9 3.1-11 3.1-1.4 0-1.9-0.2-1.5-1.4l0.3-0.4c1.9 0.2 6.2-1.2 5.9-2.3-0.5-1.2-3.2-0.6-5.6 1.1-1.9 1.7-2.3 3.4 0.9 3.4 2.8 0 6.7-1.1 10.2-2.6-1.7 1.4-2 2.6 0.3 2.6 1.5-0.1 3.7-1.8 5.1-2.8-0.4 1.6 0.5 2.6 2.6 2.4 2.9-0.2 6.3-2 8.4-3.1-1.6 3.5 1.1 4.2 5.4 0.3-0.8 3.1 2.5 3.4 8.1 0.4-2 3.6-0.4 4.6 2.5 4.3 2.5-0.3 6-1.9 9.7-3.9-1.2 1.8-0.3 3.1 1.9 2.6 1.8-0.4 4-1.5 5.4-2.6l-0.8 2.2c-6.1 2.5-14.3 8-11.5 10.1 5.2 1.9 9.9-4.2 12.8-10.3l7.6-3.5c0.4-0.2 0.4-0.5-0.2-0.1zm-63.5-0.6c0.7 0.7-3 2.1-4.9 2.1 0.9-1.4 4.1-2.8 4.9-2.1zm6.2 4.2c-1 0-0.2-1.6 2.8-3.3 0.8-0.4 2-0.2 2.2 0.5-1.2 1.1-3.7 2.8-5 2.8zm38 10.2c-2.2-1.5 3.5-6.2 10.3-9.1-1.8 3.7-5.7 10-10.3 9.1z"/>
  <path class="cls-1" d="m131.1 22.2c-1.7 1.5-4.1 4.1-6 6.2 1.1-2.1 2.4-4.5 3.6-6.6 0.9-1.5 2.7-1.5 2.4-1.9-0.2-0.4-1.7-0.9-2.2-0.2-1.9 2.5-4 6.3-6.4 10.8-1-0.6-1.3-1.9-1.9-1.8-0.4 0.3 0.5 1.7 1.6 2.6-1.3 2.3-3.7 6.2-3.6 7.4 0.3 0.5 0.6 0 0.8-0.6 0.7-2.2 3.1-5.5 4.2-7 5 2.5 12.3 0.6 16.9-2.7 7.1-5.3 3.1-11.3-3.5-9.2-2.3 0.7-4.1 1.7-5.9 3zm11.8-1.9c3 3.3-2.2 7.9-7.5 10.2-3.8 1.7-8.4 2.2-11.7 0.8 2.9-3.7 6.7-8.2 9.9-10 3.3-2.1 7.3-2.8 9.3-1z"/>
  <path class="cls-1" d="m165.5 28.4c-0.6 0.3-1.4 1.5-1.1 1.9-1.8 2.4-4.5 5.2-6.5 5-1.3-0.5 0.5-3.4 1.6-5 0.1-0.4-1.4-0.7-1.6-0.3-1.5 2.4-3.5 4.2-4.8 4-0.9-0.1 0-2.4 1.3-3.7 0-0.4-1.2-0.4-1.4 0l-0.4 0.5c-1.7 0.5-5.2 0.8-6.5 0.3-0.5-0.8-0.7-1.1-1.5-1.1-1.1 0-2 0.3-2.2 1.1-1.9 1.9-2.9 3.7 0 3.5 2.2 0 4-1.3 4-3 1.5 0.1 3.7 0 6.1-0.3-1.5 3.3 1.6 4.2 4.5 1.4-0.9 2.9 1.6 4.4 6.2-0.3l1.8-2c1.1 1.3 3.6 1.5 6.5 1l1-0.6c-3 0.5-6.5 1.1-7.1-0.5 0-0.6 2-2.1 1-2.1l-0.9 0.2zm-23.1 5.8c-1-0.3 0.5-2.6 2.6-2.8l0.9 0.2c0.2 1.2-2.2 2.8-3.5 2.6zm3-3.3-1-0.1c0.6-0.5 1.1-0.5 1 0.1z"/>
  <path class="cls-1" d="m198.2 30.9c-2.1 1.8-10 6-12.1 5.9-3.2 0.5 0.8-2.9 0.4-4.1-0.1-0.7-1.5-1.3-1.9-1.9 0.1-0.5 1.6-1.8 0.5-1.9-1.2-0.2-2 1.1-1.2 1.8-2.8 1.5-7.5 3.7-12 3.8-1.7 0-1.9-0.1-1.7-1.7 2.4 0 6.3-1.5 6.9-2.5-1.2-1.2-4.2-0.4-6.2 1.4-2.2 1.8-1.9 3.1 1 3.1 4.2 0 9.6-2.4 12.2-3.7 3 2 0 3.1 0.4 5.3 1.4 2.8 11-2 13.9-4.5 0.3-0.3 0.3-1.1-0.2-1zm-22-0.7c0.3 0.7-3.1 2.2-5.6 2.2 0.9-1.3 4.4-3.1 5.6-2.2z"/>
  <path class="cls-1" d="m54.9 58.6c-1.4 0-2.5-1-2.5-2.5 0-1.2 1.1-2.4 2.5-2.4 0.8 0 1.5 0.3 2 0.9l-0.7 0.6c-0.2-0.3-0.7-0.6-1.2-0.6-0.9 0-1.5 0.6-1.5 1.5s0.6 1.5 1.4 1.5c0.5 0 1-0.2 1.3-0.5l0.7 0.6c-0.5 0.7-1.2 0.9-2 0.9z"/>
  <path class="cls-1" d="m59.1 53.8h3.6v0.9h-2.3v0.9h2.2v0.9h-2.2v1h2.5v1h-3.8v-4.7z"/>
  <path class="cls-1" d="m65.5 53.8h1l2.2 2.8v-2.7h1v4.5h-0.7l-2.4-2.9v2.9h-1.1v-4.6z"/>
  <path class="cls-1" d="m73.6 54.7h-1.4v-0.9h3.9v0.9h-1.5v3.8h-1v-3.8z"/>
  <path class="cls-1" d="m78.5 53.8h2.2c0.7 0 1.2 0.3 1.5 0.7s0.4 1.2 0 1.9l-0.6 0.4 0.9 1.6h-1.1l-0.8-1.5h-1v1.5h-1.1v-4.6zm2.1 2.3c0.5 0 0.8-0.2 0.8-0.6 0-0.5-0.3-0.8-0.8-0.8h-1v1.4h1z"/>
  <path class="cls-1" d="m84.6 56.1c0-1.4 1-2.4 2.5-2.4 1.4 0 2.5 1 2.5 2.4s-1 2.5-2.5 2.5-2.5-1-2.5-2.5zm4 0c0-0.7-0.6-1.5-1.4-1.5s-1.6 0.6-1.6 1.5c0 0.8 0.6 1.5 1.5 1.5s1.5-0.6 1.5-1.5z"/>
  <path class="cls-1" d="m95.5 53.8h3.4v0.9h-2.3v0.9h2.1v0.9h-2.1v1h2.4v0.9h-3.5v-4.6z"/>
  <path class="cls-1" d="m101.2 57.6 0.7-0.6c0.3 0.4 0.8 0.6 1.3 0.6s0.8-0.1 0.8-0.5c0-0.7-2.4-0.5-2.6-2 0-0.7 0.7-1.4 1.7-1.4 0.6 0 1.3 0.2 1.5 0.5l-0.4 0.7c-0.2-0.3-0.7-0.3-1.1-0.3-0.5 0-0.7 0.1-0.7 0.4 0 0.7 2.2 0.4 2.2 2 0 0.9-0.6 1.5-1.6 1.5-0.8 0.1-1.5-0.3-1.8-0.6z"/>
  <path class="cls-1" d="m108 54.6h-1.3v-0.9h3.9v0.9h-1.5v3.8h-1.1v-3.8z"/>
  <path class="cls-1" d="m113.2 53.8h3.5v0.8h-2.3v1h2.2v0.9h-2.2v1h2.3v1h-3.3l-0.2-4.7z"/>
  <path class="cls-1" d="m120.5 54.6h-1.5v-0.9h4v0.9h-1.5v3.8h-1v-3.8z"/>
  <path class="cls-1" d="m125.2 53.7h1v4.8h-1v-4.8z"/>
  <path class="cls-1" d="m131.4 58.6c-1.4 0-2.5-1-2.5-2.5s1.1-2.4 2.5-2.4c0.7 0 1.5 0.3 2 0.9l-0.7 0.6c-0.2-0.3-0.7-0.6-1.2-0.6-0.9 0-1.4 0.6-1.4 1.5s0.5 1.5 1.4 1.5c0.5 0 1-0.2 1.2-0.5l0.7 0.5c-0.4 0.8-1.2 1-2 1z"/>
  <path class="cls-1" d="m135.4 56.1c0-1.4 1-2.4 2.5-2.4 1.3 0 2.5 0.9 2.5 2.4 0 1.4-1.2 2.5-2.5 2.5-1.4 0-2.5-1-2.5-2.5zm4 0c0-0.7-0.7-1.6-1.4-1.6-0.8 0-1.5 0.7-1.5 1.6 0 0.8 0.7 1.5 1.5 1.5 0.7 0 1.4-0.6 1.4-1.5z"/>
</svg>
